<svg xmlns="http://www.w3.org/2000/svg" version="1.0" width="1920.000000pt" height="1920.000000pt" viewBox="0 0 1920.000000 1920.000000" preserveAspectRatio="xMidYMid meet">
<metadata>
Created by potrace 1.14, written by Peter Selinger 2001-2017
</metadata>
<g transform="translate(0.000000,1920.000000) scale(0.100000,-0.100000)" fill="#000000" stroke="none">
<path d="M9309 16126 c-2 -2 -51 -7 -109 -10 -58 -4 -118 -9 -135 -11 -16 -3 -50 -7 -75 -9 -159 -18 -319 -44 -495 -81 -16 -3 -39 -7 -50 -9 -38 -7 -310 -77 -358 -92 -36 -12 -47 -20 -43 -32 3 -10 39 -147 81 -307 42 -159 83 -312 91 -340 33 -113 62 -240 55 -246 -3 -4 -88 -34 -189 -67 -182 -60 -183 -61 -191 -39 -5 12 -66 159 -135 327 -70 168 -145 350 -168 405 -23 55 -44 103 -47 107 -15 17 -476 -193 -721 -329 -161 -90 -468 -280 -525 -326 -5 -4 -48 -35 -95 -69 -47 -34 -87 -64 -90 -67 -3 -4 -32 -26 -65 -51 -50 -37 -219 -176 -261 -215 -6 -5 -49 -44 -95 -86 -361 -329 -712 -748 -978 -1168 -156 -245 -305 -520 -407 -751 l-42 -95 -117 -3 c-101 -2 -120 0 -138 15 -11 10 -100 137 -197 283 -190 283 -204 301 -252 326 -39 20 -73 23 -280 23 l-166 1 -4 98 c-2 70 -9 108 -23 137 -17 34 -189 214 -662 690 -61 62 -121 112 -150 126 l-48 24 -1050 0 -1050 0 -42 -23 c-41 -21 -70 -60 -78 -104 -3 -12 7 -91 21 -177 14 -86 27 -167 29 -181 14 -90 26 -158 29 -180 4 -23 34 -209 41 -255 2 -11 11 -64 19 -117 9 -54 23 -142 31 -195 9 -54 18 -109 20 -123 2 -14 14 -83 25 -155 24 -146 28 -172 35 -215 3 -16 7 -42 9 -57 3 -16 12 -72 20 -125 9 -54 23 -142 32 -195 8 -54 17 -109 20 -123 2 -14 7 -41 10 -60 3 -19 7 -46 9 -60 3 -14 7 -43 10 -65 3 -22 13 -80 21 -130 9 -49 17 -101 19 -115 4 -28 23 -144 29 -175 2 -11 7 -42 10 -68 4 -27 9 -56 11 -65 1 -10 6 -37 9 -62 3 -25 8 -56 11 -70 3 -14 14 -81 25 -150 11 -69 22 -136 25 -150 2 -14 7 -41 9 -60 12 -93 39 -148 83 -171 24 -12 250 -15 1470 -19 l1441 -5 -85 -210 c-46 -115 -86 -214 -87 -220 -2 -5 -8 -21 -13 -35 -6 -14 -68 -169 -137 -345 -70 -176 -131 -329 -136 -340 -8 -16 -228 -569 -911 -2285 -28 -69 -54 -134 -59 -145 -5 -11 -105 -263 -223 -560 -118 -297 -229 -571 -247 -610 -61 -134 -122 -250 -168 -320 -49 -74 -175 -205 -197 -205 -7 0 -18 -7 -25 -15 -32 -39 -246 -98 -399 -110 -35 -3 -66 -6 -67 -8 -2 -2 -6 -27 -9 -57 -3 -29 -6 -55 -8 -56 -2 -2 -115 -6 -253 -9 -137 -3 -265 -10 -285 -15 -44 -12 -70 -34 -95 -80 -18 -34 -19 -67 -16 -924 3 -997 -2 -932 78 -986 l43 -30 9374 0 9374 0 45 30 c83 55 78 -13 78 978 0 484 -3 893 -6 911 -9 41 -55 87 -101 100 -26 7 -390 11 -1112 11 -1073 0 -1074 0 -1056 20 10 11 22 20 26 20 17 0 316 202 339 229 3 3 28 24 55 46 162 128 449 457 541 620 6 11 35 60 64 110 207 355 355 788 405 1185 4 30 9 62 10 70 27 148 27 652 0 840 -2 14 -6 48 -9 75 -3 28 -8 60 -10 71 -3 12 -7 39 -11 60 -16 103 -72 324 -115 454 -187 570 -508 1044 -935 1379 -139 109 -199 151 -214 151 -6 0 -11 5 -11 10 0 6 -6 10 -14 10 -7 0 -25 9 -39 20 -14 11 -85 51 -159 88 l-133 67 160 2 c88 2 525 4 970 5 l810 3 38 24 c53 33 77 83 93 196 3 22 7 47 9 55 2 8 7 42 11 75 3 33 8 62 9 65 2 3 6 26 10 50 8 58 11 77 29 185 8 50 17 108 20 130 3 22 9 63 15 90 5 28 13 77 16 110 4 33 9 63 11 66 2 3 6 30 9 59 4 30 8 57 10 60 2 3 6 30 10 60 3 30 8 62 10 70 2 8 7 35 10 60 6 45 10 70 19 125 3 17 10 62 16 100 6 39 13 81 15 95 2 14 13 84 25 155 11 72 23 141 25 155 2 14 9 56 15 94 6 38 12 72 14 75 2 3 7 33 11 66 3 32 8 62 10 65 2 3 6 26 10 50 10 71 15 103 20 130 10 49 15 75 20 110 3 20 7 47 10 60 3 13 7 42 10 65 3 22 8 47 10 55 2 8 7 33 10 55 45 298 67 447 71 481 3 23 7 53 10 65 3 13 7 60 9 104 5 95 -10 134 -64 167 l-36 23 -1055 0 -1055 0 -42 -22 c-50 -27 -793 -765 -819 -815 -13 -23 -19 -64 -22 -135 l-4 -103 -194 0 c-107 0 -197 0 -201 -1 -22 -3 -81 -33 -101 -52 -23 -21 -120 -164 -286 -424 -116 -182 -105 -174 -249 -171 l-120 3 -34 80 c-298 699 -799 1399 -1390 1941 -178 163 -343 296 -573 464 -67 49 -329 221 -370 243 -14 8 -43 24 -65 37 -531 310 -1062 521 -1660 660 -66 15 -136 30 -155 34 -19 3 -46 8 -60 11 -14 3 -38 8 -55 10 -16 3 -57 10 -90 16 -33 6 -73 12 -90 14 -16 1 -52 5 -80 9 -78 11 -105 15 -170 21 -33 3 -80 8 -105 11 -54 6 -735 16 -741 10z m681 -319 c36 -3 88 -7 115 -11 28 -3 77 -8 110 -11 64 -6 310 -43 335 -50 8 -2 31 -6 50 -9 19 -3 68 -12 107 -20 40 -9 85 -18 100 -21 22 -4 223 -56 268 -69 6 -1 30 -8 55 -15 329 -89 818 -295 1155 -486 66 -37 132 -74 148 -82 32 -17 383 -251 412 -275 11 -9 51 -40 90 -69 298 -225 617 -530 865 -824 240 -285 468 -618 633 -925 25 -47 79 -150 119 -230 41 -80 99 -188 128 -240 29 -52 61 -112 72 -133 41 -77 41 -77 310 -77 271 0 285 3 351 81 37 42 275 396 341 507 l37 62 217 0 c227 0 279 7 321 37 60 46 66 63 71 222 4 111 9 153 20 166 8 11 92 94 185 186 288 283 338 333 389 388 28 30 61 60 75 67 21 11 193 14 923 14 l897 0 -4 -37 c-3 -21 -7 -49 -10 -63 -9 -41 -13 -65 -19 -106 -4 -22 -18 -109 -32 -194 -14 -85 -27 -166 -29 -180 -9 -57 -47 -285 -50 -299 -2 -14 -8 -53 -20 -131 -4 -26 -31 -192 -40 -245 -3 -16 -8 -46 -11 -65 -4 -19 -8 -47 -10 -62 -2 -14 -12 -77 -23 -140 -11 -62 -22 -126 -24 -143 -4 -26 -14 -87 -32 -195 -2 -14 -20 -124 -41 -245 -20 -121 -38 -233 -41 -250 -2 -16 -11 -68 -18 -115 -8 -47 -17 -103 -20 -125 -12 -78 -59 -358 -70 -417 l-7 -38 -2839 0 -2838 0 -6 38 c-8 43 -54 270 -60 292 -119 450 -343 879 -649 1244 -83 98 -316 329 -406 401 -41 33 -81 66 -88 73 -42 39 -292 203 -412 269 -272 151 -654 291 -892 327 -21 3 -57 10 -80 15 -108 23 -271 35 -473 36 -226 0 -335 -7 -485 -31 -19 -3 -46 -7 -60 -9 -14 -2 -61 -11 -105 -20 -44 -9 -87 -18 -95 -20 -102 -21 -338 -98 -480 -157 -119 -50 -367 -173 -380 -189 -3 -3 -20 -14 -38 -23 -101 -52 -378 -257 -501 -371 -290 -269 -512 -560 -686 -900 -148 -287 -255 -605 -301 -892 -3 -21 -8 -45 -9 -53 -2 -8 -4 -18 -4 -22 -1 -5 -1279 -8 -2840 -8 l-2839 0 -6 28 c-7 38 -24 138 -31 192 -4 25 -17 110 -30 190 -13 80 -27 165 -30 190 -4 24 -8 47 -10 50 -1 3 -6 28 -9 55 -4 28 -9 57 -11 65 -2 8 -7 38 -10 65 -4 28 -9 59 -10 70 -2 11 -6 38 -10 60 -3 22 -8 51 -10 65 -3 14 -8 42 -11 64 -3 21 -7 46 -9 55 -1 9 -8 52 -15 96 -6 44 -17 116 -25 160 -8 44 -16 96 -19 115 -3 19 -17 105 -31 190 -14 85 -28 173 -31 195 -2 22 -7 47 -9 55 -2 8 -7 35 -10 60 -3 25 -7 56 -10 70 -2 14 -7 41 -10 60 -3 19 -10 62 -16 95 -6 33 -13 74 -15 90 -2 17 -7 48 -11 70 -3 22 -7 45 -8 50 -1 16 -17 118 -21 140 -2 11 -18 105 -34 208 -17 103 -33 201 -37 217 l-6 30 889 -2 c858 -3 890 -4 928 -22 39 -20 634 -604 655 -644 5 -10 11 -79 12 -153 2 -153 11 -184 65 -226 l37 -28 248 -5 c220 -4 249 -7 267 -23 11 -10 60 -80 108 -155 125 -194 231 -354 246 -372 28 -33 95 -77 134 -88 26 -8 118 -12 247 -12 199 0 207 1 231 23 13 12 131 209 262 437 287 503 366 630 508 825 386 531 856 985 1391 1342 124 83 301 193 311 193 3 0 18 8 32 19 35 24 296 160 394 205 l78 35 19 -42 c11 -23 83 -185 160 -361 78 -175 150 -331 161 -346 32 -44 98 -64 160 -48 102 27 650 213 679 231 55 33 75 98 57 182 -4 21 -68 249 -90 325 -8 25 -30 106 -51 180 -20 74 -44 155 -51 179 -8 24 -13 46 -10 48 9 10 250 54 421 78 204 29 226 31 385 41 63 4 117 8 119 10 5 5 583 -3 661 -9z m-68 -2481 c175 -23 245 -36 368 -68 63 -16 122 -31 130 -33 23 -5 191 -65 225 -80 17 -7 59 -26 95 -41 186 -81 499 -278 635 -401 11 -10 61 -54 110 -98 299 -266 487 -508 655 -845 75 -150 169 -388 185 -471 2 -9 12 -47 23 -85 22 -76 53 -227 76 -372 18 -110 37 -146 91 -172 40 -20 66 -20 1046 -20 l1004 0 -100 -56 c-428 -240 -773 -550 -1024 -919 -37 -55 -81 -122 -96 -150 -150 -268 -236 -479 -309 -758 -40 -149 -81 -350 -91 -447 -4 -36 -9 -72 -10 -81 -24 -129 -24 -587 0 -769 2 -19 7 -57 10 -85 73 -588 325 -1184 691 -1630 182 -222 393 -412 627 -563 54 -35 96 -66 94 -68 -7 -7 -3115 -11 -3216 -4 l-83 5 48 35 c274 194 495 459 659 787 65 131 130 292 160 398 9 33 23 78 30 100 23 71 94 442 95 498 0 4 -63 7 -139 7 l-140 0 -11 -57 c-11 -51 -67 -301 -74 -328 -166 -623 -469 -1026 -946 -1258 -143 -69 -342 -133 -470 -152 -25 -3 -56 -8 -70 -11 -64 -13 -381 -12 -475 2 -713 99 -1177 570 -1402 1424 -14 52 -27 106 -29 120 -2 14 -7 36 -10 50 -7 30 -9 38 -28 155 -8 50 -18 117 -21 150 -4 33 -9 71 -11 85 -26 165 -25 1145 1 1312 2 13 6 55 9 93 4 39 9 86 11 105 10 76 16 126 20 150 2 14 6 43 10 65 24 166 87 421 145 588 139 403 305 631 635 874 65 48 243 133 351 169 223 73 424 88 669 49 56 -9 190 -46 255 -72 396 -157 709 -472 953 -962 115 -229 203 -470 332 -903 l26 -88 130 0 130 0 -6 133 c-3 72 -8 173 -10 222 -3 50 -7 151 -10 225 -6 135 -9 216 -20 470 -3 74 -8 178 -10 230 -4 101 -13 310 -20 450 -2 47 -7 162 -10 255 -4 94 -9 197 -10 230 -2 33 -4 72 -4 88 l-1 27 -125 0 -125 0 -29 -62 c-16 -35 -62 -135 -103 -223 -41 -88 -85 -184 -98 -212 -13 -29 -28 -53 -33 -53 -5 0 -46 26 -90 59 -344 248 -742 424 -1077 476 -25 4 -53 9 -64 11 -62 11 -180 18 -306 18 -217 0 -365 -22 -575 -83 -519 -150 -977 -487 -1327 -976 -60 -84 -76 -109 -151 -233 -76 -127 -188 -369 -262 -567 -26 -69 -102 -318 -111 -365 -3 -13 -13 -60 -23 -105 -16 -70 -27 -123 -46 -240 -10 -60 -34 -262 -41 -340 -6 -84 -6 -404 0 -465 3 -19 7 -67 10 -105 4 -39 8 -81 11 -95 3 -14 8 -47 11 -75 3 -27 7 -56 10 -64 3 -8 7 -30 10 -50 11 -77 68 -291 111 -420 199 -602 570 -1103 1062 -1436 45 -30 83 -55 86 -55 15 0 75 -44 67 -49 -6 -3 -95 -8 -199 -10 -270 -6 -1731 -6 -1736 -1 -3 3 -8 30 -11 59 -4 30 -8 56 -9 57 -1 1 -56 5 -122 8 -250 11 -354 43 -446 136 -58 59 -83 105 -164 311 -42 107 -83 208 -90 226 -8 17 -15 34 -15 38 0 3 -33 90 -74 193 -41 103 -115 293 -166 422 -50 129 -127 325 -170 435 -44 110 -129 328 -190 485 -61 157 -115 294 -120 305 -6 11 -30 72 -54 135 -24 63 -79 203 -121 310 -42 107 -87 222 -100 255 -13 33 -52 134 -88 225 -36 91 -97 248 -137 350 -39 102 -76 194 -81 205 -4 11 -99 252 -210 535 -111 283 -230 587 -264 675 -35 88 -62 161 -61 162 1 2 606 3 1343 3 1456 0 1388 -2 1434 53 25 30 47 101 54 172 4 33 8 67 10 75 3 8 7 33 11 55 3 22 10 60 16 85 5 25 11 52 13 60 75 338 230 688 428 970 221 312 536 606 867 807 273 165 651 316 900 358 19 3 51 10 70 15 44 11 161 27 265 36 44 3 82 8 84 10 5 4 420 -4 463 -10z m5831 -2790 c329 -27 678 -192 907 -427 185 -191 335 -444 438 -740 27 -77 95 -331 107 -398 12 -73 37 -229 40 -251 2 -14 6 -47 9 -75 32 -264 41 -463 41 -885 0 -325 -4 -442 -20 -600 -2 -25 -7 -70 -10 -100 -5 -50 -13 -109 -20 -150 -1 -8 -6 -35 -10 -60 -13 -90 -55 -280 -84 -386 -164 -595 -457 -1003 -866 -1207 -217 -108 -449 -159 -720 -160 -90 0 -131 3 -230 17 -54 8 -169 36 -230 57 -74 25 -269 118 -273 130 -2 5 -8 9 -13 9 -12 0 -101 62 -169 119 -202 167 -366 387 -472 632 -43 101 -111 297 -129 376 -6 26 -13 56 -15 66 -2 9 -6 27 -9 40 -9 44 -15 72 -21 97 -2 14 -14 86 -25 160 -11 74 -22 146 -24 160 -2 14 -7 61 -11 105 -3 44 -8 88 -10 99 -3 19 -14 174 -20 281 -4 86 -4 687 1 770 6 118 15 248 20 285 3 19 7 62 11 95 3 33 7 71 9 85 2 14 7 45 10 70 14 102 58 331 81 425 140 559 449 986 871 1206 164 85 363 141 553 155 41 4 76 7 77 8 3 3 133 -2 206 -8z m-12140 -1098 c52 -133 170 -436 263 -673 92 -236 196 -504 231 -595 35 -91 67 -174 72 -185 6 -11 40 -99 76 -195 37 -96 73 -188 80 -205 7 -16 47 -118 88 -225 l75 -195 -510 -3 c-280 -1 -736 -1 -1013 0 l-503 3 29 75 c16 41 34 84 39 95 5 11 59 146 120 300 61 154 115 289 120 300 5 11 75 184 155 385 80 201 152 379 159 395 8 17 17 41 21 55 4 14 16 43 26 65 10 22 91 222 179 445 89 223 167 414 172 425 11 19 11 19 19 -2 4 -12 50 -131 102 -265z m1011 -2610 c14 -19 81 -185 309 -768 85 -217 162 -419 171 -448 53 -181 17 -272 -127 -321 -114 -40 -199 -50 -446 -56 -101 -3 -186 -6 -188 -8 -3 -4 -10 -62 -12 -99 -1 -17 -43 -18 -736 -18 -404 0 -735 3 -736 8 -5 71 -9 115 -11 117 -2 2 -84 5 -183 8 -274 9 -400 38 -513 121 -70 52 -113 105 -149 183 -23 49 -28 72 -28 143 0 47 3 103 7 125 16 88 58 245 86 320 59 158 133 350 141 370 5 11 29 72 54 135 25 63 55 136 66 163 l20 47 1132 -2 c1057 -3 1131 -4 1143 -20z m14167 -2050 c1 -13 3 -41 6 -63 2 -22 4 -296 4 -610 0 -484 -2 -619 -10 -712 -1 -10 -1845 -13 -9186 -13 l-9185 0 0 710 0 710 9185 0 9185 0 1 -22z"/>
</g>
</svg>