<svg xmlns="http://www.w3.org/2000/svg" data-name="NACHZEICHNEN" viewBox="0 0 1920 1306"><path d="m23 1306-3-2c-9-5-10-12-9-21l-1-158c0-16 6-23 24-22l42-1 1-12c29-2 51-6 69-33 8-12 14-26 20-39l187-469H71c-10 0-16-5-17-15l-14-87L2 211l-1-6c-3-9 2-18 12-20 67-2 134 0 202-1 8 0 14 3 20 8l66 67c7 6 11 14 10 23v10h21c14 1 24-3 33 11l32 48c3 5 6 7 11 6h18A587 587 0 0 1 754 40l36 87 38-13-24-91c278-84 580 68 691 334h22c2 0 4-2 6-4l33-51c5-7 11-10 19-10h35v-14a21 21 0 0 1 7-16l71-71c5-5 12-7 19-7h190c13-1 24 3 23 18-7 59-19 118-28 177l-24 152c-2 14-8 19-22 19h-184v1c162 71 208 286 130 435-25 49-62 88-110 115l-1 2h214c9 1 14 6 15 14v175c-1 7-6 11-13 14Zm373-757 200 510c13 32 38 30 68 31l1 12c8 1 190 1 196-1-106-59-154-188-137-305 12-95 60-192 147-240 89-48 179-31 258 30l26-56h25l10 233h-26c-18-63-39-129-91-172-81-65-187-27-224 60-27 64-29 134-29 202 0 92 26 211 126 241 76 22 162-8 200-79 17-30 25-63 31-96h28c-8 72-38 142-100 183 110 2 220 0 330 0h1v-1c-119-70-167-223-135-354 21-90 73-155 156-198h-199c-9-1-14-6-15-15-9-71-40-135-95-182-168-156-444-46-469 179-2 13-7 18-20 18ZM82 519h568a317 317 0 0 1 317-270c151 2 283 121 304 270h568l50-305h-175c-5 0-9 1-12 5a104 104 0 0 1-8 9l-50 49c-3 3-4 5-4 9v19a16 16 0 0 1-13 16 39 39 0 0 1-9 1h-39c-10 18-22 34-33 51-5 7-10 14-20 14h-41c-3 0-5-1-7-3l-20-36A551 551 0 0 0 840 44l20 71c4 13 0 20-12 24l-58 19c-14 5-21-3-25-16l-28-63a550 550 0 0 0-252 228l-43 75c-2 4-5 5-9 5h-32c-10 1-20-5-26-14l-29-45c-3-5-6-6-11-6h-37c-11 0-17-7-17-18v-19a9 9 0 0 0-3-7l-43-43-13-13c-4-4-10-8-17-8H33l49 305Zm-40 756h1837c2-9 2-136 0-142H42Zm1688-444c-1-79-7-173-67-232-56-54-151-54-206 1-25 24-40 53-50 86-17 63-18 130-15 195 5 60 13 124 54 171 38 42 85 58 140 49 123-20 146-166 144-270ZM434 1090c22-1 43 1 64-6 12-4 17-12 14-25a68 68 0 0 0-3-12l-40-102-5-12c-2-4-3-5-7-5H235c-11 24-19 49-29 73a240 240 0 0 0-8 32c-6 25 11 45 34 52a191 191 0 0 0 29 4h24l1 13h147l1-12Zm16-193L350 640 247 897Z"/></svg>